<!-- <svg xmlns="http://www.w3.org/2000/svg" viewBox="0 0 841.9 595.3"><g fill="#61DAFB"><path d="M666.3 296.5c0-32.5-40.7-63.3-103.1-82.4 14.4-63.6 8-114.2-20.2-130.4-6.5-3.8-14.1-5.6-22.4-5.6v22.3c4.6 0 8.3.9 11.4 2.6 13.6 7.8 19.5 37.5 14.9 75.7-1.1 9.4-2.9 19.3-5.1 29.4-19.6-4.8-41-8.5-63.5-10.9-13.5-18.5-27.5-35.3-41.6-50 32.6-30.3 63.2-46.9 84-46.9V78c-27.5 0-63.5 19.6-99.9 53.6-36.4-33.8-72.4-53.2-99.9-53.2v22.3c20.7 0 51.4 16.5 84 46.6-14 14.7-28 31.4-41.3 49.9-22.6 2.4-44 6.1-63.6 11-2.3-10-4-19.7-5.2-29-4.7-38.2 1.1-67.9 14.6-75.8 3-1.8 6.9-2.6 11.5-2.6V78.5c-8.4 0-16 1.8-22.6 5.6-28.1 16.2-34.4 66.7-19.9 130.1-62.2 19.2-102.7 49.9-102.7 82.3 0 32.5 40.7 63.3 103.1 82.4-14.4 63.6-8 114.2 20.2 130.4 6.5 3.8 14.1 5.6 22.5 5.6 27.5 0 63.5-19.6 99.9-53.6 36.4 33.8 72.4 53.2 99.9 53.2 8.4 0 16-1.8 22.6-5.6 28.1-16.2 34.4-66.7 19.9-130.1 62-19.1 102.5-49.9 102.5-82.3zm-130.2-66.7c-3.7 12.9-8.3 26.2-13.5 39.5-4.1-8-8.4-16-13.1-24-4.6-8-9.5-15.8-14.4-23.4 14.2 2.1 27.9 4.7 41 7.9zm-45.8 106.5c-7.8 13.5-15.8 26.3-24.1 38.2-14.9 1.3-30 2-45.2 2-15.1 0-30.2-.7-45-1.9-8.3-11.9-16.4-24.6-24.2-38-7.6-13.1-14.5-26.4-20.8-39.8 6.2-13.4 13.2-26.8 20.7-39.9 7.8-13.5 15.8-26.3 24.1-38.2 14.9-1.3 30-2 45.2-2 15.1 0 30.2.7 45 1.9 8.3 11.9 16.4 24.6 24.2 38 7.6 13.1 14.5 26.4 20.8 39.8-6.3 13.4-13.2 26.8-20.7 39.9zm32.3-13c5.4 13.4 10 26.8 13.8 39.8-13.1 3.2-26.9 5.9-41.2 8 4.9-7.7 9.8-15.6 14.4-23.7 4.6-8 8.9-16.1 13-24.1zM421.2 430c-9.3-9.6-18.6-20.3-27.8-32 9 .4 18.2.7 27.5.7 9.4 0 18.7-.2 27.8-.7-9 11.7-18.3 22.4-27.5 32zm-74.4-58.9c-14.2-2.1-27.9-4.7-41-7.9 3.7-12.9 8.3-26.2 13.5-39.5 4.1 8 8.4 16 13.1 24 4.7 8 9.5 15.8 14.4 23.4zM420.7 163c9.3 9.6 18.6 20.3 27.8 32-9-.4-18.2-.7-27.5-.7-9.4 0-18.7.2-27.8.7 9-11.7 18.3-22.4 27.5-32zm-74 58.9c-4.9 7.7-9.8 15.6-14.4 23.7-4.6 8-8.9 16-13 24-5.4-13.4-10-26.8-13.8-39.8 13.1-3.1 26.9-5.8 41.2-7.9zm-90.5 125.2c-35.4-15.1-58.3-34.9-58.3-50.6 0-15.7 22.9-35.6 58.3-50.6 8.6-3.7 18-7 27.7-10.1 5.7 19.6 13.2 40 22.5 60.9-9.2 20.8-16.6 41.1-22.2 60.6-9.9-3.1-19.3-6.5-28-10.2zM310 490c-13.6-7.8-19.5-37.5-14.9-75.7 1.1-9.4 2.9-19.3 5.1-29.4 19.6 4.8 41 8.5 63.5 10.9 13.5 18.5 27.5 35.3 41.6 50-32.6 30.3-63.2 46.9-84 46.9-4.5-.1-8.3-1-11.3-2.7zm237.2-76.2c4.7 38.2-1.1 67.9-14.6 75.8-3 1.8-6.9 2.6-11.5 2.6-20.7 0-51.4-16.5-84-46.6 14-14.7 28-31.4 41.3-49.9 22.6-2.4 44-6.1 63.6-11 2.3 10.1 4.1 19.8 5.2 29.1zm38.5-66.7c-8.6 3.7-18 7-27.7 10.1-5.7-19.6-13.2-40-22.5-60.9 9.2-20.8 16.6-41.1 22.2-60.6 9.9 3.1 19.3 6.5 28.1 10.2 35.4 15.1 58.3 34.9 58.3 50.6-.1 15.7-23 35.6-58.4 50.6zM320.8 78.4z"/><circle cx="420.9" cy="296.5" r="45.7"/><path d="M520.5 78.1z"/></g></svg> -->

<svg width="40" height="40" viewBox="0 0 40 40" fill="none" xmlns="http://www.w3.org/2000/svg">
<rect width="40" height="40" fill="#5F47F1"/>
<path d="M15.9453 13.0469C16.9609 13.0469 17.875 13.2969 18.6875 13.7969C19.5156 14.2812 20.1719 14.9688 20.6562 15.8594C21.1562 16.7344 21.4062 17.7656 21.4062 18.9531C21.4062 20.2344 21.1562 21.3594 20.6562 22.3281C20.1719 23.2812 19.5 24.0234 18.6406 24.5547C17.7969 25.0859 16.8359 25.3516 15.7578 25.3516C15.0859 25.3516 14.3984 25.1719 13.6953 24.8125C13.0078 24.4531 12.4141 23.9922 11.9141 23.4297V30.625H9.99219V13.2812H11.9141V15.2734C12.3203 14.6484 12.8672 14.125 13.5547 13.7031C14.2578 13.2656 15.0547 13.0469 15.9453 13.0469ZM15.6406 14.9219C14.9375 14.9219 14.2969 15.1016 13.7188 15.4609C13.1562 15.8203 12.7109 16.3203 12.3828 16.9609C12.0703 17.5859 11.9141 18.3203 11.9141 19.1641L11.9375 21.4141C12.4375 22.0234 12.9609 22.5234 13.5078 22.9141C14.0547 23.2891 14.6875 23.4766 15.4062 23.4766C16.25 23.4766 16.9688 23.2578 17.5625 22.8203C18.1562 22.3828 18.6094 21.8203 18.9219 21.1328C19.25 20.4297 19.4141 19.7031 19.4141 18.9531C19.4141 18.1875 19.2578 17.5078 18.9453 16.9141C18.6328 16.3047 18.1953 15.8203 17.6328 15.4609C17.0703 15.1016 16.4062 14.9219 15.6406 14.9219ZM26.4922 8.125V25H24.5703V8.125H26.4922Z" fill="white"/>
<path d="M32 22.1406C32.4531 22.1406 32.8359 22.3047 33.1484 22.6328C33.4766 22.9453 33.6406 23.3281 33.6406 23.7812C33.6406 24.2188 33.4766 24.6016 33.1484 24.9297C32.8359 25.2578 32.4531 25.4219 32 25.4219C31.5469 25.4219 31.1562 25.2578 30.8281 24.9297C30.5156 24.6016 30.3594 24.2188 30.3594 23.7812C30.3594 23.3281 30.5156 22.9453 30.8281 22.6328C31.1562 22.3047 31.5469 22.1406 32 22.1406Z" fill="#16E8B5"/>
</svg>
