<svg width="115" height="38" viewBox="0 0 115 38" fill="none" xmlns="http://www.w3.org/2000/svg">
<path fill-rule="evenodd" clip-rule="evenodd" d="M113.026 12.4152C113.352 12.8751 113.641 13.3594 113.892 13.8639C114.141 14.3677 114.351 14.891 114.518 15.4276C114.685 15.9635 114.809 16.5127 114.89 17.0682C114.971 17.6236 115.007 18.1846 114.999 18.7457C115.007 19.3074 114.971 19.8684 114.89 20.4239C114.809 20.9793 114.685 21.5285 114.518 22.0644C114.351 22.601 114.141 23.1236 113.892 23.6282C113.641 24.1327 113.352 24.6169 113.026 25.0761C112.044 26.3251 110.785 27.3363 109.346 28.0313C107.907 28.7263 106.326 29.0877 104.724 29.0877C103.122 29.0877 101.541 28.7263 100.102 28.0313C98.6625 27.3363 97.404 26.3251 96.422 25.0761C96.0953 24.6169 95.8062 24.1327 95.5559 23.6282C95.3063 23.1243 95.0963 22.601 94.9295 22.0651C94.7619 21.5285 94.6375 20.9793 94.5569 20.4239C94.477 19.8684 94.4402 19.3074 94.4487 18.7457C94.4402 18.1846 94.477 17.6236 94.5569 17.0682C94.6375 16.512 94.7619 15.9635 94.9295 15.4269C95.0963 14.8903 95.3063 14.3677 95.5559 13.8639C95.8062 13.3594 96.0953 12.8751 96.422 12.4152C97.404 11.1669 98.6625 10.1558 100.102 9.46075C101.541 8.76574 103.122 8.40429 104.724 8.40429C106.326 8.40429 107.907 8.76574 109.346 9.46075C110.785 10.1558 112.044 11.1669 113.026 12.4152ZM109.737 21.1119C109.869 20.7309 109.969 20.3401 110.035 19.9431C110.101 19.546 110.135 19.1441 110.135 18.7422C110.135 18.3395 110.101 17.9376 110.035 17.5406C109.969 17.1442 109.869 16.7527 109.737 16.3717C108.983 14.1486 107.186 12.305 104.716 12.3601C102.245 12.4152 100.457 14.1486 99.7026 16.3717C99.5703 16.7534 99.4699 17.1449 99.4035 17.5427C99.3363 17.9404 99.3024 18.343 99.3024 18.7457C99.3024 19.149 99.3363 19.5516 99.4035 19.9494C99.4699 20.3471 99.5703 20.7386 99.7026 21.1196C100.448 23.3435 102.237 25.187 104.716 25.1319C107.194 25.0761 108.983 23.3435 109.737 21.1196V21.1119ZM34.1391 28.5581C34.1391 28.6349 34.1235 28.7109 34.0938 28.7821C34.0634 28.8533 34.0203 28.9182 33.9651 28.9719C33.91 29.0263 33.8442 29.0696 33.7721 29.0989C33.7 29.1289 33.6229 29.1436 33.5452 29.1436H30.0963C30.0178 29.1436 29.9408 29.1289 29.8687 29.0989C29.7973 29.0696 29.7315 29.0263 29.6763 28.9719C29.6212 28.9182 29.5774 28.8533 29.5477 28.7821C29.518 28.7109 29.5024 28.6349 29.5024 28.5581V0.585453C29.5024 0.508695 29.518 0.432635 29.5477 0.36146C29.5774 0.290284 29.6212 0.226087 29.6763 0.171658C29.7315 0.11723 29.7973 0.0739666 29.8687 0.0446591C29.9408 0.0153516 30.0178 0 30.0963 0H33.5452C33.6229 0 33.7 0.0153516 33.7721 0.0446591C33.8442 0.0739666 33.91 0.11723 33.9651 0.171658C34.0203 0.226087 34.0634 0.290284 34.0938 0.36146C34.1235 0.432635 34.1391 0.508695 34.1391 0.585453V28.5581ZM26.0373 28.5581C26.0373 28.6349 26.0225 28.7109 25.9921 28.7821C25.9624 28.8533 25.9185 28.9182 25.8634 28.9719C25.8082 29.0263 25.7432 29.0696 25.6711 29.0989C25.599 29.1289 25.5219 29.1436 25.4441 29.1436H21.9946C21.9168 29.1436 21.8397 29.1289 21.7676 29.0989C21.6955 29.0696 21.6304 29.0263 21.5753 28.9719C21.5202 28.9182 21.4763 28.8533 21.4466 28.7821C21.4169 28.7109 21.4014 28.6349 21.4014 28.5581V0.585453C21.4014 0.509393 21.4162 0.434031 21.4459 0.363553C21.4749 0.293075 21.518 0.228878 21.5725 0.17445C21.6269 0.120021 21.6913 0.0767578 21.762 0.0467525C21.8334 0.0167472 21.9097 0.000697798 21.9868 0H25.4356C25.5141 0 25.5912 0.0153516 25.6633 0.0446591C25.7354 0.0739666 25.8005 0.11723 25.8556 0.171658C25.9108 0.226087 25.9546 0.290284 25.9843 0.36146C26.014 0.432635 26.0295 0.508695 26.0295 0.585453V28.5581H26.0373ZM93.671 11.9407C93.6851 12.0433 93.6724 12.1473 93.6349 12.2443C93.5974 12.3406 93.5359 12.4264 93.456 12.4934C93.3761 12.5604 93.2807 12.6064 93.1782 12.6274C93.0756 12.6483 92.9689 12.6434 92.8685 12.6134C88.9707 11.8221 86.5725 13.531 86.5725 17.0842V28.5581C86.5725 28.6349 86.5569 28.7109 86.5272 28.7821C86.4975 28.8533 86.4537 28.9182 86.3985 28.9719C86.3434 29.0263 86.2776 29.0696 86.2055 29.0989C86.1341 29.1289 86.0563 29.1436 85.9786 29.1436H82.5297C82.4519 29.1436 82.3742 29.1289 82.3028 29.0989C82.2306 29.0696 82.1649 29.0263 82.1098 28.9719C82.0546 28.9182 82.0108 28.8533 81.9811 28.7821C81.9514 28.7109 81.9358 28.6349 81.9358 28.5581V16.8393C81.9259 16.2859 81.974 15.734 82.0808 15.1911C82.1868 14.6482 82.3508 14.1179 82.5693 13.6092C82.7878 13.0998 83.0593 12.6148 83.3803 12.1612C83.7013 11.7084 84.0696 11.2897 84.479 10.9122C84.8954 10.5102 85.3507 10.1495 85.8379 9.83547C86.3257 9.52076 86.8433 9.2542 87.3827 9.03858C87.9229 8.82366 88.4828 8.66038 89.0555 8.55292C89.6275 8.44476 90.2087 8.39242 90.7913 8.39591C90.9928 8.39661 91.1943 8.40149 91.3958 8.41057C91.5973 8.42034 91.7988 8.43429 91.9996 8.45313C92.2004 8.47127 92.4004 8.4943 92.6005 8.52152C92.7999 8.54943 92.9993 8.58083 93.1973 8.61711C93.6066 8.75179 93.671 8.98904 93.671 9.59822V11.9407ZM78.8963 18.738V28.5581C78.902 28.907 78.8942 29.2559 78.873 29.6041C78.8518 29.9516 78.8179 30.2991 78.7698 30.6445C78.7224 30.9906 78.6616 31.3339 78.5874 31.6752C78.5131 32.0157 78.4262 32.3541 78.3265 32.6891C78.1943 33.1182 78.0218 33.5348 77.8111 33.9332C77.6004 34.3317 77.3529 34.7099 77.0715 35.063C76.7901 35.4161 76.4762 35.7426 76.134 36.0385C75.7911 36.3344 75.422 36.5988 75.0296 36.827C72.7679 38.1012 69.7602 38.18 65.2925 37.8004C65.224 37.8039 65.1554 37.7935 65.091 37.7704C65.0267 37.7474 64.9673 37.7125 64.9164 37.6672C64.8662 37.6211 64.8245 37.566 64.7955 37.5053C64.7665 37.4439 64.7503 37.3776 64.7467 37.3099V34.3031C64.7467 33.7413 65.1158 33.6618 65.6453 33.7413C65.9734 33.7874 66.3022 33.8265 66.6316 33.8586C66.9611 33.8907 67.2913 33.9158 67.6215 33.9339C67.9524 33.9514 68.2832 33.9626 68.6148 33.966C68.9457 33.9695 69.2766 33.9653 69.6075 33.9549C71.5327 33.8362 74.5404 33.2187 74.5404 29.8239V27.3237C74.1063 27.6098 73.6509 27.8638 73.1787 28.0836C72.7057 28.3027 72.2178 28.4876 71.7172 28.6363C71.2174 28.7849 70.7069 28.8972 70.1901 28.9712C69.6732 29.0459 69.1515 29.0821 68.629 29.0808C67.8286 29.0919 67.0304 29.0103 66.2491 28.8372C65.4679 28.6642 64.7107 28.4018 63.9916 28.0543C63.2733 27.7068 62.5981 27.2776 61.9809 26.7745C61.3636 26.2721 60.8086 25.6992 60.3271 25.0684C59.6795 24.1438 59.1768 23.1271 58.8374 22.0539C58.4981 20.98 58.3256 19.8621 58.3256 18.738C58.3256 17.6138 58.4981 16.496 58.8374 15.4227C59.1768 14.3488 59.6795 13.3328 60.3271 12.4076C61.3099 11.1585 62.5684 10.1481 64.0072 9.45308C65.446 8.75737 67.0269 8.39591 68.629 8.39591C70.2311 8.39591 71.8127 8.75737 73.2515 9.45308C74.6903 10.1481 75.9488 11.1585 76.9308 12.4076C77.2596 12.866 77.5509 13.3496 77.8026 13.8534C78.0536 14.3572 78.2636 14.8806 78.4311 15.4172C78.598 15.9538 78.7224 16.5029 78.8016 17.0591C78.8808 17.6152 78.9147 18.1763 78.9041 18.738H78.8963ZM74.3558 18.7303C74.3558 17.923 74.172 12.3441 68.629 12.3441C66.1509 12.3441 64.3621 14.1325 63.6077 16.3564C63.4755 16.7374 63.3758 17.1296 63.3086 17.5266C63.2415 17.9244 63.2075 18.327 63.2075 18.7303C63.2075 19.1336 63.2415 19.5356 63.3086 19.9333C63.3758 20.3311 63.4755 20.7225 63.6077 21.1042C64.3621 23.3274 66.1509 25.1159 68.629 25.1159C74.172 25.1159 74.3558 19.537 74.3558 18.7303ZM18.2488 16.6648V28.5344C18.2488 28.6111 18.2339 28.6872 18.2042 28.7584C18.1738 28.8295 18.13 28.8937 18.0755 28.9482C18.0204 29.0026 17.9546 29.0459 17.8825 29.0752C17.8104 29.1045 17.7333 29.1198 17.6556 29.1198H7.50911C7.03612 29.1463 6.56171 29.1338 6.09154 29.0821C5.62066 29.0305 5.15544 28.9398 4.70012 28.8114C4.2448 28.683 3.80149 28.5169 3.37445 28.316C2.94741 28.1143 2.53805 27.8777 2.1506 27.6084C1.79426 27.3195 1.47398 26.9908 1.19541 26.628C0.916848 26.2658 0.682117 25.8723 0.496878 25.4557C0.311638 25.0391 0.176597 24.6023 0.0945826 24.155C0.0118611 23.707 -0.0164197 23.2513 0.00903306 22.7978V22.7343C0.00903306 16.7437 6.61827 15.9524 8.7761 15.9524H13.7896V15.5176C13.8002 15.2315 13.7712 14.9448 13.7033 14.6663C13.6355 14.3879 13.5301 14.12 13.3894 13.8694C13.2487 13.6189 13.0741 13.388 12.8712 13.1842C12.6675 12.9798 12.4363 12.8039 12.1854 12.6609C10.3485 11.7433 6.73917 12.0831 3.73079 13.9113C3.65938 13.9727 3.57171 14.0146 3.47839 14.032C3.38506 14.0495 3.2882 14.0425 3.19841 14.0111C3.10861 13.9797 3.02872 13.9253 2.96721 13.8534C2.90641 13.7815 2.8654 13.695 2.84843 13.6022L2.6639 10.6275C2.6639 10.5891 2.66814 10.5514 2.67804 10.5144C2.68723 10.4774 2.70208 10.4419 2.72117 10.4084C2.73955 10.3756 2.76288 10.3449 2.78975 10.3176C2.81732 10.2904 2.84772 10.2667 2.88095 10.2472C3.41122 9.94502 3.96128 9.67707 4.5269 9.4461C5.09322 9.21513 5.67369 9.02114 6.26546 8.86553C6.85795 8.70992 7.45962 8.59339 8.06695 8.51593C8.67428 8.43918 9.28656 8.40149 9.89884 8.40359C12.3536 8.40359 15.0007 9.10767 16.3158 10.5242C17.6315 11.9407 18.241 13.9902 18.241 16.6885L18.2488 16.6648ZM13.7896 19.5767H9.04901C5.39936 19.5767 4.66972 21.7134 4.66972 22.7817C4.66618 22.9715 4.68598 23.1606 4.72911 23.3455C4.77223 23.5305 4.83799 23.7091 4.92495 23.878C5.01192 24.0475 5.11938 24.2052 5.24594 24.3483C5.37179 24.492 5.51461 24.619 5.67227 24.7279C5.82428 24.8416 5.98548 24.9435 6.15375 25.0321C6.32203 25.1207 6.49666 25.1968 6.67695 25.2596C6.85653 25.3217 7.04177 25.3706 7.22913 25.4048C7.41649 25.4389 7.60668 25.4585 7.79758 25.4641H13.7896V19.5767ZM46.8358 8.40359C55.2182 8.40359 56.3006 16.1345 56.0603 19.814C56.0588 19.8866 56.044 19.9577 56.015 20.024C55.9867 20.0903 55.945 20.1503 55.8927 20.2006C55.8411 20.2515 55.7796 20.2913 55.7117 20.3185C55.6438 20.3464 55.5717 20.3604 55.4989 20.3604H41.8633C41.9347 21.0086 42.1256 21.6387 42.4254 22.2207C42.7258 22.802 43.1303 23.3246 43.6195 23.7635C44.1088 24.2017 44.6751 24.5492 45.2902 24.7886C45.9053 25.0279 46.56 25.1549 47.2211 25.1633C47.8015 25.2198 48.3855 25.2282 48.9667 25.1884C49.5486 25.1494 50.1262 25.0614 50.6933 24.9268C51.2596 24.7928 51.8146 24.6121 52.3512 24.386C52.8871 24.1606 53.4033 23.8912 53.8947 23.5807C54.3677 23.2562 54.6964 23.5095 54.6964 24.0475V26.6824C54.7205 26.7759 54.7296 26.8722 54.7233 26.9685C54.7169 27.0648 54.6957 27.159 54.6604 27.249C54.6243 27.3383 54.5748 27.4221 54.5126 27.4968C54.4511 27.5707 54.3775 27.6356 54.2955 27.6879C52.6029 28.637 50.3892 29.191 47.0768 29.0724C46.2786 29.0717 45.4825 28.981 44.7048 28.803C43.9271 28.6244 43.1727 28.3599 42.4558 28.0131C41.7388 27.667 41.0643 27.2407 40.4443 26.7438C39.8249 26.247 39.265 25.6825 38.775 25.0607C38.4484 24.6009 38.1592 24.1166 37.9089 23.6121C37.6593 23.1083 37.4493 22.5856 37.2825 22.049C37.1149 21.5124 36.9905 20.964 36.9106 20.4078C36.83 19.8524 36.7932 19.2913 36.8017 18.7303C36.801 18.4917 36.8081 18.253 36.8229 18.0151C36.8378 17.7771 36.8597 17.5399 36.8894 17.3026C36.9184 17.0661 36.9551 16.8302 36.9997 16.5957C37.0442 16.3613 37.0958 16.1289 37.1545 15.8972C38.0128 12.4627 40.7002 8.40359 46.8358 8.40359ZM51.2073 16.72C51.2511 16.1415 51.1684 15.5602 50.9655 15.0152C50.7618 14.4709 50.443 13.9755 50.0301 13.5624C49.6165 13.1493 49.118 12.8283 48.5687 12.6211C48.0193 12.4138 47.4311 12.3245 46.8442 12.3601C46.2305 12.3238 45.6154 12.4083 45.0357 12.6085C44.4552 12.8088 43.9214 13.1207 43.4647 13.5268C43.0079 13.9322 42.6375 14.4235 42.3745 14.972C42.1121 15.5204 41.963 16.1143 41.9354 16.72H51.2073Z" fill="#FF5A00"/>
</svg>
