<svg version="1.2" baseProfile="tiny-ps" xmlns="http://www.w3.org/2000/svg" viewBox="0 0 1627 545" width="1627" height="545">
	<title>logo (15)-svg</title>
	<style>
		tspan { white-space:pre }
		.shp0 { fill: #ff5a00 } 
	</style>
	<path id="Layer" fill-rule="evenodd" class="shp0" d="M1598.79 178.26C1603.41 184.85 1607.5 191.79 1611.04 199.02C1614.57 206.24 1617.53 213.74 1619.9 221.43C1622.26 229.11 1624.02 236.98 1625.16 244.94C1626.3 252.9 1626.81 260.94 1626.7 268.98C1626.81 277.03 1626.3 285.07 1625.16 293.03C1624.02 300.99 1622.26 308.86 1619.9 316.54C1617.53 324.23 1614.57 331.72 1611.04 338.95C1607.5 346.18 1603.41 353.12 1598.79 359.7C1584.9 377.6 1567.1 392.09 1546.74 402.05C1526.39 412.01 1504.03 417.19 1481.37 417.19C1458.71 417.19 1436.35 412.01 1416 402.05C1395.64 392.09 1377.84 377.6 1363.95 359.7C1359.33 353.12 1355.24 346.18 1351.7 338.95C1348.17 331.73 1345.2 324.23 1342.84 316.55C1340.47 308.86 1338.71 300.99 1337.57 293.03C1336.44 285.07 1335.92 277.03 1336.04 268.98C1335.92 260.94 1336.44 252.9 1337.57 244.94C1338.71 236.97 1340.47 229.11 1342.84 221.42C1345.2 213.73 1348.17 206.24 1351.7 199.02C1355.24 191.79 1359.33 184.85 1363.95 178.26C1377.84 160.37 1395.64 145.88 1416 135.92C1436.35 125.96 1458.71 120.78 1481.37 120.78C1504.03 120.78 1526.39 125.96 1546.74 135.92C1567.1 145.88 1584.9 160.37 1598.79 178.26ZM1552.28 302.89C1554.14 297.43 1555.55 291.83 1556.49 286.14C1557.43 280.45 1557.91 274.69 1557.91 268.93C1557.91 263.16 1557.43 257.4 1556.49 251.71C1555.55 246.03 1554.14 240.42 1552.28 234.96C1541.61 203.1 1516.2 176.68 1481.26 177.47C1446.31 178.26 1421.02 203.1 1410.35 234.96C1408.48 240.43 1407.06 246.04 1406.12 251.74C1405.17 257.44 1404.69 263.21 1404.69 268.98C1404.69 274.76 1405.17 280.53 1406.12 286.23C1407.06 291.93 1408.48 297.54 1410.35 303C1420.9 334.87 1446.2 361.29 1481.26 360.5C1516.31 359.7 1541.61 334.87 1552.28 303L1552.28 302.89ZM483.03 409.6C483.03 410.7 482.81 411.79 482.39 412.81C481.96 413.83 481.35 414.76 480.57 415.53C479.79 416.31 478.86 416.93 477.84 417.35C476.82 417.78 475.73 417.99 474.63 417.99L425.85 417.99C424.74 417.99 423.65 417.78 422.63 417.35C421.62 416.93 420.69 416.31 419.91 415.53C419.13 414.76 418.51 413.83 418.09 412.81C417.67 411.79 417.45 410.7 417.45 409.6L417.45 8.73C417.45 7.63 417.67 6.54 418.09 5.52C418.51 4.5 419.13 3.58 419.91 2.8C420.69 2.02 421.62 1.4 422.63 0.98C423.65 0.56 424.74 0.34 425.85 0.34L474.63 0.34C475.73 0.34 476.82 0.56 477.84 0.98C478.86 1.4 479.79 2.02 480.57 2.8C481.35 3.58 481.96 4.5 482.39 5.52C482.81 6.54 483.03 7.63 483.03 8.73L483.03 409.6ZM368.44 409.6C368.44 410.7 368.23 411.79 367.8 412.81C367.38 413.83 366.76 414.76 365.98 415.53C365.2 416.31 364.28 416.93 363.26 417.35C362.24 417.78 361.15 417.99 360.05 417.99L311.26 417.99C310.16 417.99 309.07 417.78 308.05 417.35C307.03 416.93 306.11 416.31 305.33 415.53C304.55 414.76 303.93 413.83 303.51 412.81C303.09 411.79 302.87 410.7 302.87 409.6L302.87 8.73C302.87 7.64 303.08 6.56 303.5 5.55C303.91 4.54 304.52 3.62 305.29 2.84C306.06 2.06 306.97 1.44 307.97 1.01C308.98 0.58 310.06 0.35 311.15 0.34L359.93 0.34C361.04 0.34 362.13 0.56 363.15 0.98C364.17 1.4 365.09 2.02 365.87 2.8C366.65 3.58 367.27 4.5 367.69 5.52C368.11 6.54 368.33 7.63 368.33 8.73L368.33 409.6L368.44 409.6ZM1325.04 171.46C1325.24 172.93 1325.06 174.42 1324.53 175.81C1324 177.19 1323.13 178.42 1322 179.38C1320.87 180.34 1319.52 181 1318.07 181.3C1316.62 181.6 1315.11 181.53 1313.69 181.1C1258.56 169.76 1224.64 194.25 1224.64 245.17L1224.64 409.6C1224.64 410.7 1224.42 411.79 1224 412.81C1223.58 413.83 1222.96 414.76 1222.18 415.53C1221.4 416.31 1220.47 416.93 1219.45 417.35C1218.44 417.78 1217.34 417.99 1216.24 417.99L1167.46 417.99C1166.36 417.99 1165.26 417.78 1164.25 417.35C1163.23 416.93 1162.3 416.31 1161.52 415.53C1160.74 414.76 1160.12 413.83 1159.7 412.81C1159.28 411.79 1159.06 410.7 1159.06 409.6L1159.06 241.66C1158.92 233.73 1159.6 225.82 1161.11 218.04C1162.61 210.26 1164.93 202.66 1168.02 195.37C1171.11 188.07 1174.95 181.12 1179.49 174.62C1184.03 168.13 1189.24 162.13 1195.03 156.72C1200.92 150.96 1207.36 145.79 1214.25 141.29C1221.15 136.78 1228.47 132.96 1236.1 129.87C1243.74 126.79 1251.66 124.45 1259.76 122.91C1267.85 121.36 1276.07 120.61 1284.31 120.66C1287.16 120.67 1290.01 120.74 1292.86 120.87C1295.71 121.01 1298.56 121.21 1301.4 121.48C1304.24 121.74 1307.07 122.07 1309.9 122.46C1312.72 122.86 1315.54 123.31 1318.34 123.83C1324.13 125.76 1325.04 129.16 1325.04 137.89L1325.04 171.46ZM1116.07 268.87L1116.07 409.6C1116.15 414.6 1116.04 419.6 1115.74 424.59C1115.44 429.57 1114.96 434.55 1114.28 439.5C1113.61 444.46 1112.75 449.38 1111.7 454.27C1110.65 459.15 1109.42 464 1108.01 468.8C1106.14 474.95 1103.7 480.92 1100.72 486.63C1097.74 492.34 1094.24 497.76 1090.26 502.82C1086.28 507.88 1081.84 512.56 1077 516.8C1072.15 521.04 1066.93 524.83 1061.38 528.1C1029.39 546.36 986.85 547.49 923.66 542.05C922.69 542.1 921.72 541.95 920.81 541.62C919.9 541.29 919.06 540.79 918.34 540.14C917.63 539.48 917.04 538.69 916.63 537.82C916.22 536.94 915.99 535.99 915.94 535.02L915.94 491.93C915.94 483.88 921.16 482.74 928.65 483.88C933.29 484.54 937.94 485.1 942.6 485.56C947.26 486.02 951.93 486.38 956.6 486.64C961.28 486.89 965.96 487.05 970.65 487.1C975.33 487.15 980.01 487.09 984.69 486.94C1011.92 485.24 1054.46 476.39 1054.46 427.74L1054.46 391.91C1048.32 396.01 1041.88 399.65 1035.2 402.8C1028.51 405.94 1021.61 408.59 1014.53 410.72C1007.46 412.85 1000.24 414.46 992.93 415.52C985.62 416.59 978.24 417.11 970.85 417.09C959.53 417.25 948.24 416.08 937.19 413.6C926.14 411.12 915.43 407.36 905.26 402.38C895.1 397.4 885.55 391.25 876.82 384.04C868.09 376.84 860.24 368.63 853.43 359.59C844.27 346.34 837.16 331.77 832.36 316.39C827.56 301 825.12 284.98 825.12 268.87C825.12 252.76 827.56 236.74 832.36 221.36C837.16 205.97 844.27 191.41 853.43 178.15C867.33 160.25 885.13 145.77 905.48 135.81C925.83 125.84 948.19 120.66 970.85 120.66C993.51 120.66 1015.88 125.84 1036.23 135.81C1056.58 145.77 1074.38 160.25 1088.27 178.15C1092.92 184.72 1097.04 191.65 1100.6 198.87C1104.15 206.09 1107.12 213.59 1109.49 221.28C1111.85 228.97 1113.61 236.84 1114.73 244.81C1115.85 252.78 1116.33 260.82 1116.18 268.87L1116.07 268.87ZM1051.85 268.76C1051.85 257.19 1049.25 177.24 970.85 177.24C935.8 177.24 910.5 202.87 899.83 234.74C897.96 240.2 896.55 245.82 895.6 251.51C894.65 257.21 894.17 262.98 894.17 268.76C894.17 274.54 894.65 280.3 895.6 286C896.55 291.7 897.96 297.31 899.83 302.78C910.5 334.64 935.8 360.27 970.85 360.27C1049.25 360.27 1051.85 280.32 1051.85 268.76ZM258.28 239.16L258.28 409.26C258.28 410.36 258.07 411.45 257.65 412.47C257.22 413.49 256.6 414.41 255.83 415.19C255.05 415.97 254.12 416.59 253.1 417.01C252.08 417.43 250.99 417.65 249.89 417.65L106.38 417.65C99.69 418.03 92.98 417.85 86.33 417.11C79.67 416.37 73.09 415.07 66.65 413.23C60.21 411.39 53.94 409.01 47.9 406.13C41.86 403.24 36.07 399.85 30.59 395.99C25.55 391.85 21.02 387.14 17.08 381.94C13.14 376.75 9.82 371.11 7.2 365.14C4.58 359.17 2.67 352.91 1.51 346.5C0.34 340.08 -0.06 333.55 0.3 327.05L0.3 326.14C0.3 240.29 93.78 228.95 124.3 228.95L195.21 228.95L195.21 222.72C195.36 218.62 194.95 214.51 193.99 210.52C193.03 206.53 191.54 202.69 189.55 199.1C187.56 195.51 185.09 192.2 182.22 189.28C179.34 186.35 176.07 183.83 172.52 181.78C146.54 168.63 95.49 173.5 52.94 199.7C51.93 200.58 50.69 201.18 49.37 201.43C48.05 201.68 46.68 201.58 45.41 201.13C44.14 200.68 43.01 199.9 42.14 198.87C41.28 197.84 40.7 196.6 40.46 195.27L37.85 152.64C37.85 152.09 37.91 151.55 38.05 151.02C38.18 150.49 38.39 149.98 38.66 149.5C38.92 149.03 39.25 148.59 39.63 148.2C40.02 147.81 40.45 147.47 40.92 147.19C48.42 142.86 56.2 139.02 64.2 135.71C72.21 132.4 80.42 129.62 88.79 127.39C97.17 125.16 105.68 123.49 114.27 122.38C122.86 121.28 131.52 120.74 140.18 120.77C174.9 120.77 212.34 130.86 230.94 151.16C249.55 171.46 258.17 200.83 258.17 239.5L258.28 239.16ZM195.21 280.89L128.16 280.89C76.54 280.89 66.22 311.51 66.22 326.82C66.17 329.54 66.45 332.25 67.06 334.9C67.67 337.55 68.6 340.11 69.83 342.53C71.06 344.96 72.58 347.22 74.37 349.27C76.15 351.33 78.17 353.15 80.4 354.71C82.55 356.34 84.83 357.8 87.21 359.07C89.59 360.34 92.06 361.43 94.61 362.33C97.15 363.22 99.77 363.92 102.42 364.41C105.07 364.9 107.76 365.18 110.46 365.26L195.21 365.26L195.21 280.89ZM662.61 120.77C781.17 120.77 796.48 231.56 793.08 284.29C793.06 285.33 792.85 286.35 792.44 287.3C792.04 288.25 791.45 289.11 790.71 289.83C789.98 290.56 789.11 291.13 788.15 291.52C787.19 291.92 786.17 292.12 785.14 292.12L592.28 292.12C593.29 301.41 595.99 310.44 600.23 318.78C604.48 327.11 610.2 334.6 617.12 340.89C624.04 347.17 632.05 352.15 640.75 355.58C649.45 359.01 658.71 360.83 668.06 360.95C676.27 361.76 684.53 361.88 692.75 361.31C700.98 360.75 709.15 359.49 717.17 357.56C725.18 355.64 733.03 353.05 740.62 349.81C748.2 346.58 755.5 342.72 762.45 338.27C769.14 333.62 773.79 337.25 773.79 344.96L773.79 382.72C774.13 384.06 774.26 385.44 774.17 386.82C774.08 388.2 773.78 389.55 773.28 390.84C772.77 392.12 772.07 393.32 771.19 394.39C770.32 395.45 769.28 396.38 768.12 397.13C744.18 410.73 712.87 418.67 666.02 416.97C654.73 416.96 643.47 415.66 632.47 413.11C621.47 410.55 610.8 406.76 600.66 401.79C590.52 396.83 580.98 390.72 572.21 383.6C563.45 376.48 555.53 368.39 548.6 359.48C543.98 352.89 539.89 345.95 536.35 338.72C532.82 331.5 529.85 324.01 527.49 316.32C525.12 308.63 523.36 300.77 522.23 292.8C521.09 284.84 520.57 276.8 520.69 268.76C520.68 265.34 520.78 261.92 520.99 258.51C521.2 255.1 521.51 251.7 521.93 248.3C522.34 244.91 522.86 241.53 523.49 238.17C524.12 234.81 524.85 231.48 525.68 228.16C537.82 178.94 575.83 120.77 662.61 120.77ZM724.44 239.95C725.06 231.66 723.89 223.33 721.02 215.52C718.14 207.72 713.63 200.62 707.79 194.7C701.94 188.78 694.89 184.18 687.12 181.21C679.35 178.24 671.03 176.96 662.73 177.47C654.05 176.95 645.35 178.16 637.15 181.03C628.94 183.9 621.39 188.37 614.93 194.19C608.47 200 603.23 207.04 599.51 214.9C595.8 222.76 593.69 231.27 593.3 239.95L724.44 239.95Z" />
</svg>