<svg width="20" height="20" viewBox="0 0 20 20" fill="none" xmlns="http://www.w3.org/2000/svg">
<path d="M17.5428 16.4638C9.03591 20.3925 3.75643 17.1055 0.376874 15.109C0.167749 14.9832 -0.187692 15.1385 0.120701 15.4822C1.2466 16.807 4.93641 20 9.75269 20C14.5723 20 17.4395 17.4481 17.7982 17.0029C18.1544 16.5615 17.9028 16.318 17.5427 16.4638H17.5428ZM19.9319 15.1835C19.7035 14.8948 18.5428 14.841 17.8124 14.9281C17.0808 15.0126 15.9827 15.4465 16.0782 15.707C16.1272 15.8046 16.2272 15.7608 16.7297 15.717C17.2337 15.6682 18.6454 15.4953 18.9396 15.8685C19.2351 16.2442 18.4893 18.0341 18.3531 18.3228C18.2215 18.6115 18.4034 18.6859 18.6506 18.4936C18.8944 18.3015 19.3358 17.8037 19.632 17.0994C19.9261 16.3912 20.1056 15.4033 19.9319 15.1835Z" fill="#AAB1C6"/>
<path fill-rule="evenodd" clip-rule="evenodd" d="M11.823 8.44772C11.823 9.47855 11.8498 10.3382 11.3129 11.2536C10.8795 11.998 10.1931 12.4557 9.42608 12.4557C8.37907 12.4557 7.76932 11.6816 7.76932 10.5392C7.76932 8.28393 9.85168 7.87461 11.823 7.87461V8.44772ZM14.5727 14.897C14.3924 15.0533 14.1316 15.0645 13.9284 14.9602C13.0233 14.2309 12.8622 13.8922 12.3637 13.1963C10.868 14.6775 9.80957 15.1203 7.86907 15.1203C5.57572 15.1203 3.78857 13.747 3.78857 10.9969C3.78857 8.84967 4.98901 7.38709 6.69548 6.67263C8.17585 6.0399 10.2429 5.92828 11.823 5.75343V5.41102C11.823 4.78206 11.8728 4.03779 11.4932 3.49449C11.1595 3.00697 10.5229 2.806 9.96292 2.806C8.92367 2.806 7.99558 3.32325 7.76932 4.39502C7.72324 4.63326 7.54306 4.86772 7.29763 4.87886L4.65143 4.60353C4.42905 4.55505 4.18363 4.3802 4.24498 4.04893C4.85474 0.937869 7.75008 0 10.3425 0C11.6695 0 13.4029 0.342405 14.4499 1.31746C15.7768 2.51944 15.6502 4.12337 15.6502 5.86874V9.99211C15.6502 11.2314 16.1795 11.7747 16.678 12.4446C16.8544 12.6827 16.8928 12.9694 16.6703 13.1479C16.1142 13.5982 15.1248 14.4355 14.5803 14.9045L14.5726 14.897" fill="#AAB1C6"/>
<path d="M17.5428 16.4638C9.03591 20.3925 3.75643 17.1055 0.376874 15.109C0.167749 14.9832 -0.187692 15.1385 0.120701 15.4822C1.2466 16.807 4.93641 20 9.75269 20C14.5723 20 17.4395 17.4481 17.7982 17.0029C18.1544 16.5615 17.9028 16.318 17.5427 16.4638H17.5428ZM19.9319 15.1835C19.7035 14.8948 18.5428 14.841 17.8124 14.9281C17.0808 15.0126 15.9827 15.4465 16.0782 15.707C16.1272 15.8046 16.2272 15.7608 16.7297 15.717C17.2337 15.6682 18.6454 15.4953 18.9396 15.8685C19.2351 16.2442 18.4893 18.0341 18.3531 18.3228C18.2215 18.6115 18.4034 18.6859 18.6506 18.4936C18.8944 18.3015 19.3358 17.8037 19.632 17.0994C19.9261 16.3912 20.1056 15.4033 19.9319 15.1835Z" fill="#AAB1C6"/>
<path fill-rule="evenodd" clip-rule="evenodd" d="M11.823 8.44772C11.823 9.47855 11.8498 10.3382 11.3129 11.2536C10.8795 11.998 10.1931 12.4557 9.42608 12.4557C8.37907 12.4557 7.76932 11.6816 7.76932 10.5392C7.76932 8.28393 9.85168 7.87461 11.823 7.87461V8.44772ZM14.5727 14.897C14.3924 15.0533 14.1316 15.0645 13.9284 14.9602C13.0233 14.2309 12.8622 13.8922 12.3637 13.1963C10.868 14.6775 9.80957 15.1203 7.86907 15.1203C5.57572 15.1203 3.78857 13.747 3.78857 10.9969C3.78857 8.84967 4.98901 7.38709 6.69548 6.67263C8.17585 6.0399 10.2429 5.92828 11.823 5.75343V5.41102C11.823 4.78206 11.8728 4.03779 11.4932 3.49449C11.1595 3.00697 10.5229 2.806 9.96292 2.806C8.92367 2.806 7.99558 3.32325 7.76932 4.39502C7.72324 4.63326 7.54306 4.86772 7.29763 4.87886L4.65143 4.60353C4.42905 4.55505 4.18363 4.3802 4.24498 4.04893C4.85474 0.937869 7.75008 0 10.3425 0C11.6695 0 13.4029 0.342405 14.4499 1.31746C15.7768 2.51944 15.6502 4.12337 15.6502 5.86874V9.99211C15.6502 11.2314 16.1795 11.7747 16.678 12.4446C16.8544 12.6827 16.8928 12.9694 16.6703 13.1479C16.1142 13.5982 15.1248 14.4355 14.5803 14.9045L14.5726 14.897" fill="#AAB1C6"/>
</svg>
