<svg width="20" height="20" viewBox="0 0 20 20" fill="none" xmlns="http://www.w3.org/2000/svg">
<path d="M9.58333 0C4.3125 0 0 4.3125 0 9.58333C0 14.8542 4.3125 19.1667 9.58333 19.1667C14.8542 19.1667 19.1667 14.8542 19.1667 9.58333C19.1667 4.3125 14.8542 0 9.58333 0ZM9.58333 17.25C5.27083 17.25 1.91667 13.8958 1.91667 9.58333C1.91667 5.27083 5.27083 1.91667 9.58333 1.91667C13.8958 1.91667 17.25 5.27083 17.25 9.58333C17.25 13.8958 13.8958 17.25 9.58333 17.25Z" fill="#1F9254"/>
<path d="M7.47497 14.1833L3.92914 10.7333L5.2708 9.29583L7.47497 11.5L12.9375 5.65416L14.375 6.99583L7.47497 14.1833Z" fill="#1F9254"/>
</svg>
