<svg width="23" height="22" viewBox="0 0 23 22" fill="none" xmlns="http://www.w3.org/2000/svg">
<path d="M14.8568 10.9999H12.6053V8.74834C12.6053 8.12959 12.0982 7.62256 11.4795 7.62256C10.8607 7.62256 10.3537 8.12959 10.3537 8.74834V10.9999H8.09355C7.4748 10.9999 6.96777 11.5069 6.96777 12.1257C6.96777 12.7444 7.4748 13.2515 8.09355 13.2515H10.3451V15.503C10.3451 16.1218 10.8521 16.6288 11.4709 16.6288C12.0896 16.6288 12.5967 16.1218 12.5967 15.503V13.2515H14.8482C15.467 13.2515 15.974 12.7444 15.974 12.1257C15.9826 11.5069 15.4756 10.9999 14.8568 10.9999Z" fill="#AAB1C6"/>
<path d="M20.1592 5.69766L15.6475 1.19453C15.4326 0.979687 15.149 0.859375 14.8482 0.859375H5.84199C3.97715 0.859375 2.45605 2.38047 2.45605 4.23672V17.7547C2.45605 19.6195 3.97715 21.132 5.8334 21.132H17.0998C18.9646 21.132 20.4771 19.6109 20.4771 17.7547V6.49687C20.4857 6.19609 20.3654 5.90391 20.1592 5.69766ZM17.7701 6.49687H16.5412C15.6131 6.49687 14.8482 5.74063 14.8482 4.80391V3.575L17.7701 6.49687ZM17.1084 18.8891H5.84199C5.22324 18.8891 4.71621 18.382 4.71621 17.7633V4.23672C4.71621 3.61797 5.22324 3.11094 5.84199 3.11094H13.7311V4.80391C13.7311 6.35938 14.9943 7.62266 16.5498 7.62266H18.2428V17.7633C18.2342 18.382 17.7271 18.8891 17.1084 18.8891Z" fill="#AAB1C6"/>
</svg>
