<svg width="20" height="20" viewBox="0 0 20 20" fill="none" xmlns="http://www.w3.org/2000/svg">
<path d="M10 0C4.48555 0 0 4.48555 0 10C0 15.5145 4.48555 20 10 20C15.5145 20 20 15.5145 20 10C20 4.48555 15.5145 0 10 0ZM10 18.0655C5.55299 18.0655 1.93449 14.447 1.93449 10C1.93449 5.55299 5.55299 1.93449 10 1.93449C14.447 1.93449 18.0655 5.55299 18.0655 10C18.0655 14.447 14.447 18.0655 10 18.0655Z" fill="#AAB1C6"/>
<path d="M13.5494 9.03278H10.9675V6.45089C10.9675 5.91524 10.5359 5.48364 10.0003 5.48364C9.46462 5.48364 9.03302 5.91524 9.03302 6.45089V9.03278H6.45113C5.91549 9.03278 5.48389 9.46437 5.48389 10C5.48389 10.5357 5.91549 10.9673 6.45113 10.9673H9.03302V13.5492C9.03302 14.0848 9.46462 14.5164 10.0003 14.5164C10.5359 14.5164 10.9675 14.0848 10.9675 13.5492V10.9673H13.5494C14.085 10.9673 14.5166 10.5357 14.5166 10C14.5166 9.46437 14.085 9.03278 13.5494 9.03278Z" fill="#AAB1C6"/>
</svg>

