<svg width="20" height="20" viewBox="0 0 20 20" fill="none" xmlns="http://www.w3.org/2000/svg">
<path d="M9.75 19.5C4.365 19.5 0 15.135 0 9.75C0 4.365 4.365 0 9.75 0C15.135 0 19.5 4.365 19.5 9.75C19.5 15.135 15.135 19.5 9.75 19.5ZM9.75 2.25C5.6085 2.25 2.25 5.6085 2.25 9.75C2.25 13.8915 5.6085 17.25 9.75 17.25C13.8922 17.25 17.25 13.8915 17.25 9.75C17.25 5.6085 13.8922 2.25 9.75 2.25ZM13.1528 12.4012L12.3923 13.1617C12.2528 13.3012 12.0262 13.3012 11.886 13.1617L9.7335 11.0093L7.581 13.1617C7.44075 13.3012 7.215 13.3012 7.07475 13.1617L6.31425 12.4012C6.17475 12.2617 6.17475 12.0353 6.31425 11.895L8.4675 9.74325L6.31425 7.59075C6.17475 7.4505 6.17475 7.224 6.31425 7.08375L7.07475 6.324C7.215 6.18375 7.44075 6.18375 7.581 6.324L9.7335 8.4765L11.886 6.324C12.0262 6.18375 12.2528 6.18375 12.3923 6.324L13.1528 7.08375C13.2923 7.224 13.2923 7.4505 13.1528 7.59075L10.9995 9.74325L13.1528 11.895C13.2923 12.0353 13.2923 12.2625 13.1528 12.4012Z" fill="#AAB1C6"/>
</svg>
