<svg width="15" height="15" viewBox="0 0 15 15" fill="none" xmlns="http://www.w3.org/2000/svg">
<path d="M9.28044 7.49982L14.8516 1.92898C15.0494 1.73115 15.0494 1.41101 14.8516 1.21325L13.7869 0.14812C13.6921 0.0533558 13.5634 0 13.4291 0C13.2947 0 13.166 0.0533558 13.0712 0.14812L7.50001 5.71939L1.92881 0.14812C1.83398 0.0533558 1.70529 0 1.57094 0C1.43663 0 1.30791 0.0533558 1.21311 0.14812L0.148372 1.21325C-0.0494574 1.41101 -0.0494574 1.73115 0.148372 1.92898L5.71957 7.49985L0.148926 13.07C-0.0488064 13.2679 -0.0488064 13.588 0.148926 13.7858L1.21373 14.8509C1.30849 14.9457 1.43721 14.999 1.57156 14.999C1.70591 14.999 1.8346 14.9457 1.92946 14.8509L7.49998 9.28029L13.0705 14.8509C13.1654 14.9457 13.294 14.999 13.4284 14.999C13.5628 14.999 13.6915 14.9457 13.7862 14.8509L14.851 13.7858C15.0488 13.588 15.0488 13.2679 14.851 13.07L9.28044 7.49982Z" fill="black"/>
</svg>
