<svg width="19" height="22" viewBox="0 0 19 22" fill="none" xmlns="http://www.w3.org/2000/svg">
<path d="M1.4375 5.5H3.27083H17.9375" stroke="#AAB1C6" stroke-width="2" stroke-linecap="round" stroke-linejoin="round"/>
<path d="M6.021 5.50016V3.66683C6.021 3.1806 6.21415 2.71428 6.55797 2.37047C6.90178 2.02665 7.3681 1.8335 7.85433 1.8335H11.521C12.0072 1.8335 12.4735 2.02665 12.8174 2.37047C13.1612 2.71428 13.3543 3.1806 13.3543 3.66683V5.50016M16.1043 5.50016V18.3335C16.1043 18.8197 15.9112 19.286 15.5674 19.6299C15.2235 19.9737 14.7572 20.1668 14.271 20.1668H5.10433C4.6181 20.1668 4.15178 19.9737 3.80797 19.6299C3.46415 19.286 3.271 18.8197 3.271 18.3335V5.50016H16.1043Z" stroke="#AAB1C6" stroke-width="2" stroke-linecap="round" stroke-linejoin="round"/>
<path d="M7.854 10.0835V15.5835" stroke="#AAB1C6" stroke-width="2" stroke-linecap="round" stroke-linejoin="round"/>
<path d="M11.521 10.0835V15.5835" stroke="#AAB1C6" stroke-width="2" stroke-linecap="round" stroke-linejoin="round"/>
</svg>
