<svg width="23" height="22" viewBox="0 0 23 22" fill="none" xmlns="http://www.w3.org/2000/svg">
<path fill-rule="evenodd" clip-rule="evenodd" d="M7.80404 9.16675C7.80404 7.1417 9.44566 5.50008 11.4707 5.50008C13.4957 5.50008 15.1374 7.1417 15.1374 9.16675V10.0834H16.054C17.826 10.0834 19.2624 11.5198 19.2624 13.2917C19.2624 15.0637 17.826 16.5001 16.054 16.5001H15.9624C15.4561 16.5001 15.0457 16.9105 15.0457 17.4167C15.0457 17.923 15.4561 18.3334 15.9624 18.3334H16.054C18.8385 18.3334 21.0957 16.0762 21.0957 13.2917C21.0957 10.7978 19.2848 8.72672 16.9062 8.3218C16.4997 5.68537 14.221 3.66675 11.4707 3.66675C8.72046 3.66675 6.4417 5.68537 6.0352 8.3218C3.65659 8.72672 1.8457 10.7978 1.8457 13.2917C1.8457 16.0762 4.10293 18.3334 6.88737 18.3334H6.97904C7.48529 18.3334 7.8957 17.923 7.8957 17.4167C7.8957 16.9105 7.48529 16.5001 6.97904 16.5001H6.88737C5.11545 16.5001 3.67904 15.0637 3.67904 13.2917C3.67904 11.5198 5.11545 10.0834 6.88737 10.0834H7.80404V9.16675ZM12.3874 10.0834C12.3874 9.57714 11.977 9.16675 11.4707 9.16675C10.9644 9.16675 10.554 9.57714 10.554 10.0834V15.2037L9.36889 14.0186C9.0109 13.6606 8.4305 13.6606 8.07252 14.0186C7.71454 14.3765 7.71454 14.957 8.07252 15.3149L10.8225 18.0649C11.1805 18.4229 11.7609 18.4229 12.1189 18.0649L14.8689 15.3149C15.2268 14.957 15.2268 14.3765 14.8689 14.0186C14.5109 13.6606 13.9305 13.6606 13.5725 14.0186L12.3874 15.2037V10.0834Z" fill="#AAB1C6"/>
</svg>


