<svg width="30" height="13" viewBox="0 0 30 13" fill="none" xmlns="http://www.w3.org/2000/svg">
<path d="M3.87929 2.62256C1.76328 2.62256 0 3.52016 0 6.22856C0 8.37419 1.18569 9.72529 3.93382 9.72529C7.16858 9.72529 7.37592 7.59447 7.37592 7.59447H5.80857C5.80857 7.59447 5.47255 8.74184 3.83826 8.74184C2.50717 8.74184 1.54983 7.84264 1.54983 6.5824H7.53993V5.79147C7.53993 4.54464 6.7484 2.62256 3.87929 2.62256ZM3.82455 3.63333C5.09159 3.63333 5.95537 4.40955 5.95537 5.57293H1.58446C1.58446 4.3378 2.71201 3.63333 3.82455 3.63333Z" fill="#E53238"/>
<path d="M7.53881 0V8.36528C7.53881 8.84009 7.50488 9.50684 7.50488 9.50684H8.99978C8.99978 9.50684 9.05351 9.02802 9.05351 8.59033C9.05351 8.59033 9.79211 9.7459 11.8004 9.7459C13.9153 9.7459 15.3518 8.27752 15.3518 6.17402C15.3518 4.21701 14.0323 2.64306 11.8038 2.64306C9.71706 2.64306 9.06863 3.76991 9.06863 3.76991V0H7.53881ZM11.418 3.67775C12.8541 3.67775 13.7675 4.74366 13.7675 6.17402C13.7675 7.70784 12.7127 8.71121 11.4283 8.71121C9.89548 8.71121 9.06863 7.51431 9.06863 6.18763C9.06863 4.9514 9.81052 3.67775 11.418 3.67775Z" fill="#0064D2"/>
<path d="M19.0672 2.62256C15.8839 2.62256 15.6798 4.36552 15.6798 4.64411H17.2642C17.2642 4.64411 17.3473 3.62653 18.958 3.62653C20.0046 3.62653 20.8156 4.10565 20.8156 5.02656V5.35438H18.958C16.4918 5.35438 15.188 6.07586 15.188 7.53994C15.188 8.9807 16.3927 9.76462 18.0206 9.76462C20.2393 9.76462 20.954 8.5387 20.954 8.5387C20.954 9.02633 20.9915 9.50685 20.9915 9.50685H22.4001C22.4001 9.50685 22.3455 8.91125 22.3455 8.5302V5.2366C22.3455 3.07696 20.6036 2.62256 19.0672 2.62256ZM20.8156 6.33784V6.77493C20.8156 7.34501 20.4638 8.76235 18.3928 8.76235C17.2587 8.76235 16.7725 8.19637 16.7725 7.53984C16.7725 6.34554 18.4099 6.33784 20.8156 6.33784Z" fill="#F5AF02"/>
<path d="M21.4922 2.896H23.2747L25.8329 8.02121L28.3852 2.896H30L25.351 12.0205H23.6572L24.9987 9.47688L21.4922 2.896Z" fill="#86B817"/>
</svg>
