<svg width="32" height="13" viewBox="0 0 32 13" fill="none" xmlns="http://www.w3.org/2000/svg">
<g clip-path="url(#clip0_944_1586)">
<path d="M4.14583 2.80615C1.89029 2.80615 0.0107422 3.76307 0.0107422 6.65004C0.0107422 8.93715 1.2746 10.3774 4.20407 10.3774C7.6522 10.3774 7.87323 8.10605 7.87323 8.10605H6.20245C6.20245 8.10605 5.84422 9.32911 4.10215 9.32911C2.68328 9.32911 1.66277 8.37062 1.66277 7.02715H8.04796V6.18411C8.04796 4.855 7.20421 2.80615 4.14583 2.80615ZM4.08759 3.88361C5.43821 3.88361 6.35898 4.71102 6.35898 5.95115H1.69972C1.69972 4.6346 2.90156 3.88361 4.08759 3.88361Z" fill="#AAB1C6"/>
<path d="M8.04662 0.0107422V8.92776C8.04662 9.43392 8.0105 10.1446 8.0105 10.1446H9.60407C9.60407 10.1446 9.66127 9.63418 9.66127 9.16769C9.66127 9.16769 10.4486 10.3994 12.5894 10.3994C14.8437 10.3994 16.375 8.8343 16.375 6.59194C16.375 4.5059 14.9685 2.82813 12.593 2.82813C10.3686 2.82813 9.67736 4.02935 9.67736 4.02935V0.0107422H8.04662ZM12.1817 3.93107C13.7126 3.93107 14.6861 5.06725 14.6861 6.59194C14.6861 8.2269 13.5617 9.29649 12.1926 9.29649C10.5587 9.29649 9.67736 8.02074 9.67736 6.6065C9.67736 5.2887 10.4682 3.93107 12.1817 3.93107Z" fill="#AAB1C6"/>
<path d="M20.3355 2.80615C16.9422 2.80615 16.7246 4.66416 16.7246 4.96106H18.4136C18.4136 4.96106 18.5022 3.87632 20.219 3.87632C21.3347 3.87632 22.1992 4.38698 22.1992 5.36874V5.71819H20.219C17.5902 5.71819 16.2004 6.48722 16.2004 8.04781C16.2004 9.58366 17.4845 10.4193 19.2199 10.4193C21.5848 10.4193 22.3467 9.11253 22.3467 9.11253C22.3467 9.63229 22.3867 10.1445 22.3867 10.1445H23.8882C23.8882 10.1445 23.83 9.5096 23.83 9.10343V5.5926C23.83 3.29061 21.9732 2.80615 20.3355 2.80615ZM22.1992 6.76652V7.23244C22.1992 7.84014 21.8242 9.35095 19.6166 9.35095C18.4077 9.35095 17.8894 8.74763 17.8894 8.04781C17.8894 6.77472 19.6349 6.76652 22.1992 6.76652Z" fill="#AAB1C6"/>
<path d="M22.9204 3.09766H24.8205L27.5474 8.56084L30.2681 3.09766H31.9893L27.0337 12.8238H25.2282L26.6582 10.1125L22.9204 3.09766Z" fill="#AAB1C6"/>
</g>
<defs>
<clipPath id="clip0_944_1586">
<rect width="32" height="12.8346" fill="white"/>
</clipPath>
</defs>
</svg>
