<svg width="671" height="269" viewBox="0 0 671 269" fill="none" xmlns="http://www.w3.org/2000/svg">
<g clip-path="url(#clip0_1378_2455)">
<path d="M86.9313 58.8158C39.6353 58.8158 0.223633 78.8718 0.223633 139.38C0.223633 187.316 26.7251 217.503 88.1525 217.503C160.455 217.503 165.09 169.897 165.09 169.897H130.056C130.056 169.897 122.544 195.531 86.0153 195.531C56.2633 195.531 34.8646 175.442 34.8646 147.284H168.754V129.614C168.754 101.758 151.062 58.8158 86.9313 58.8158ZM85.71 81.3981C114.031 81.3981 133.338 98.74 133.338 124.732H35.6394C35.6394 97.1383 60.8404 81.3981 85.71 81.3981Z" fill="#5F47F1"/>
<path d="M168.729 0.223755V187.116C168.729 197.724 167.972 212.62 167.972 212.62H201.387C201.387 212.62 202.586 201.922 202.586 192.144C202.586 192.144 219.095 217.96 263.985 217.96C311.256 217.96 343.366 185.157 343.366 138.159C343.366 94.4379 313.872 59.2735 264.062 59.2735C217.418 59.2735 202.924 84.4498 202.924 84.4498V0.223755H168.729ZM255.437 82.3899C287.537 82.3899 307.95 106.203 307.95 138.159C307.95 172.426 284.374 194.844 255.666 194.844C221.405 194.844 202.924 168.106 202.924 138.464C202.924 110.844 219.507 82.3899 255.437 82.3899Z" fill="#5F47F1"/>
<path d="M426.41 58.8158C355.256 58.8158 350.693 97.7577 350.693 103.98H386.109C386.109 103.98 387.966 81.2456 423.967 81.2456C447.361 81.2456 465.489 91.9484 465.489 112.525V119.849H423.967C368.844 119.849 339.702 135.967 339.702 168.676C339.702 200.866 366.628 218.38 403.015 218.38C452.605 218.38 468.58 190.991 468.58 190.991C468.58 201.885 469.421 212.62 469.421 212.62H500.905C500.905 212.62 499.684 199.314 499.684 190.8V117.217C499.684 68.9695 460.749 58.8158 426.41 58.8158ZM465.489 141.821V151.587C465.489 164.323 457.626 195.988 411.335 195.988C385.986 195.988 375.118 183.343 375.118 168.676C375.118 141.993 411.718 141.821 465.489 141.821Z" fill="#5F47F1"/>
<path d="M480.613 64.9253H520.455L577.635 179.428L634.684 64.9253H670.776L566.862 268.777H529.004L558.99 211.95L480.613 64.9253Z" fill="#5F47F1"/>
</g>
<defs>
<clipPath id="clip0_1378_2455">
<rect width="671" height="269" fill="white"/>
</clipPath>
</defs>
</svg>
