<svg width="84" height="34" viewBox="0 0 84 34" fill="none" xmlns="http://www.w3.org/2000/svg">
<path d="M52.973 17.776C49.179 17.9 46.808 18.58 46.808 21.096C46.808 22.726 48.108 24.478 51.386 24.478C55.778 24.478 58.129 22.086 58.129 18.148V17.715L52.974 17.777L52.973 17.776ZM62.335 22.972L62.479 26.477H58.582C58.479 25.59 58.438 24.704 58.438 23.837C56.335 26.435 53.818 27.177 50.334 27.177C45.179 27.177 42.416 24.455 42.416 21.3C42.416 16.722 46.169 15.114 52.716 14.97C54.499 14.93 56.499 14.93 58.149 14.93V14.476C58.149 11.424 56.189 10.176 52.789 10.176C50.273 10.176 48.397 11.228 48.211 13.022H43.799C44.273 8.52703 48.995 7.39203 53.139 7.39203C58.139 7.39203 62.315 9.16503 62.315 14.424V22.981L62.335 22.972Z" fill="#AAB1C6"/>
<path d="M16.702 15.55C16.537 11.632 13.702 10.168 10.682 10.168C7.424 10.168 4.805 11.818 4.352 15.55H16.702ZM4.269 18.334C4.496 22.149 7.115 24.396 10.723 24.396C13.218 24.396 15.445 23.396 16.187 21.159H20.517C19.672 25.654 14.887 27.179 10.784 27.179C3.299 27.179 0 23.055 0 17.509C0 11.385 3.423 7.36401 10.867 7.36401C16.785 7.36401 21.115 10.457 21.115 17.221V18.335L4.269 18.334Z" fill="#AAB1C6"/>
<path d="M31.859 24.313C35.756 24.313 38.416 21.509 38.416 17.281C38.416 13.053 35.756 10.249 31.859 10.249C27.982 10.249 25.302 13.053 25.302 17.281C25.302 21.509 27.982 24.313 31.859 24.313ZM21.114 0H25.299V10.537C27.361 8.083 30.186 7.382 32.969 7.382C37.649 7.382 42.826 10.537 42.826 17.342C42.826 23.042 38.702 27.199 32.886 27.199C29.834 27.199 26.989 26.106 25.216 23.941C25.216 24.807 25.176 25.673 25.072 26.498H20.949L21.093 22.168V0H21.114Z" fill="#AAB1C6"/>
<path d="M83.6769 8.06403L70.7059 33.53H66.0059L69.7379 26.457L59.9849 8.06403H64.8929L72.0689 22.436L79.2239 8.06403H83.6769Z" fill="#AAB1C6"/>
</svg>