<svg width="21" height="22" viewBox="0 0 21 22" fill="none" xmlns="http://www.w3.org/2000/svg">
<path d="M9.771 3.6665H3.35433C2.8681 3.6665 2.40178 3.85966 2.05797 4.20347C1.71415 4.54729 1.521 5.01361 1.521 5.49984V18.3332C1.521 18.8194 1.71415 19.2857 2.05797 19.6295C2.40178 19.9733 2.8681 20.1665 3.35433 20.1665H16.1877C16.6739 20.1665 17.1402 19.9733 17.484 19.6295C17.8278 19.2857 18.021 18.8194 18.021 18.3332V11.9165" stroke="#AAB1C6" stroke-width="2" stroke-linecap="round" stroke-linejoin="round"/>
<path d="M16.646 2.29171C17.0107 1.92704 17.5053 1.72217 18.021 1.72217C18.5367 1.72217 19.0313 1.92704 19.396 2.29171C19.7607 2.65638 19.9655 3.15099 19.9655 3.66671C19.9655 4.18244 19.7607 4.67704 19.396 5.04171L10.6877 13.75L7.021 14.6667L7.93766 11L16.646 2.29171Z" stroke="#AAB1C6" stroke-width="2" stroke-linecap="round" stroke-linejoin="round"/>
</svg>
