<svg width="32" height="19" viewBox="0 0 32 19" fill="none" xmlns="http://www.w3.org/2000/svg">
<g clip-path="url(#clip0_944_1554)">
<mask id="mask0_944_1554" style="mask-type:luminance" maskUnits="userSpaceOnUse" x="-3" y="-4" width="38" height="26">
<path d="M34.5372 -3.0083H-2.53711V21.7079H34.5372V-3.0083Z" fill="white"/>
</mask>
<g mask="url(#mask0_944_1554)">
<mask id="mask1_944_1554" style="mask-type:luminance" maskUnits="userSpaceOnUse" x="-133" y="-75" width="298" height="168">
<path d="M-132.297 -74.0674H164.297V92.7669H-132.297V-74.0674Z" fill="white"/>
</mask>
<g mask="url(#mask1_944_1554)">
<path d="M7.57928 1.82764C3.39334 1.82764 0 5.22098 0 9.40692C0 13.5929 3.39334 16.9862 7.57928 16.9862C11.7652 16.9862 15.1586 13.5929 15.1586 9.40692C15.1586 5.22098 11.7652 1.82764 7.57928 1.82764ZM7.57928 11.6714C6.30929 11.6714 5.27975 10.6418 5.27975 9.37185C5.27975 8.10185 6.30929 7.13706 7.57928 7.13706C8.84928 7.13706 9.87876 8.10185 9.87876 9.37185C9.87876 10.6418 8.84928 11.6714 7.57928 11.6714Z" fill="#AAB1C6"/>
<path d="M20.9645 18.392H16.5994V0H20.9645V18.392Z" fill="#AAB1C6"/>
<path d="M22.7983 13.8801H25.7378L27.3992 12.2188L29.0606 13.8801H32V10.9729L30.3225 9.29542L32 7.61796V4.66992H29.1013L27.3992 6.37205L25.697 4.66992H22.7983V7.61796L24.4758 9.29542L22.7983 10.9729V13.8801Z" fill="#AAB1C6"/>
</g>
</g>
</g>
<defs>
<clipPath id="clip0_944_1554">
<rect width="32" height="18.392" fill="white"/>
</clipPath>
</defs>
</svg>
