<svg width="17" height="20" viewBox="0 0 17 20" fill="none" xmlns="http://www.w3.org/2000/svg">
<path d="M2.47489 5.58029C3.84455 4.20983 5.64529 3.35418 7.57287 3.15792L6.18258 1.76763C6.06173 1.67697 5.96226 1.56088 5.89118 1.42756C5.82011 1.29425 5.77917 1.14695 5.77126 0.996082C5.76335 0.845211 5.78866 0.694443 5.8454 0.554425C5.90214 0.414406 5.98893 0.288552 6.09964 0.185749C6.38915 0.0237347 6.72524 -0.0347397 7.05246 0.0199747C7.37968 0.0746892 7.67847 0.239323 7.89953 0.48671L9.29422 1.88141C9.88875 2.46272 10.5316 2.99242 11.216 3.46475C11.3935 3.57 11.5277 3.73496 11.5947 3.93014C11.6321 4.08886 11.6151 4.25554 11.5465 4.40344C11.4778 4.55133 11.3614 4.67186 11.216 4.74567C10.5318 5.21823 9.88894 5.74791 9.29422 6.32902L7.89953 7.72371C7.71529 7.91489 7.48637 8.0572 7.2334 8.1378C6.98044 8.21841 6.71138 8.23478 6.45051 8.18543C6.324 8.15578 6.2047 8.10113 6.09964 8.02467C5.99337 7.9282 5.90884 7.81021 5.85169 7.67855C5.79453 7.54689 5.76605 7.40458 5.76813 7.26106C5.77021 7.11755 5.80281 6.97612 5.86377 6.84617C5.92472 6.71623 6.01263 6.60074 6.12166 6.50739C6.14221 6.48537 6.1613 6.46261 6.18258 6.44133L7.43854 5.1861C6.26355 5.371 5.16266 5.87748 4.25777 6.64947C3.35288 7.42146 2.67931 8.42884 2.31164 9.56004C1.94397 10.6912 1.89655 11.9021 2.17464 13.0586C2.45272 14.2151 3.04546 15.2721 3.88721 16.1124C3.99878 16.224 4.11476 16.3327 4.23221 16.4303C5.49575 17.5197 7.13235 18.0769 8.79812 17.9849C10.4639 17.8929 12.0292 17.1588 13.165 15.9369C14.3009 14.715 14.919 13.1004 14.8894 11.4324C14.8598 9.76433 14.1848 8.17269 13.0063 6.99187L14.4201 5.57955C14.642 5.80253 14.8516 6.03754 15.0477 6.28351C16.0399 7.52638 16.661 9.02411 16.8397 10.6044C17.0183 12.1847 16.7472 13.7833 16.0576 15.2163C15.3679 16.6493 14.2877 17.8585 12.9412 18.7048C11.5948 19.551 10.0367 20 8.44639 20C6.36816 20.0051 4.36204 19.2384 2.81696 17.8485C2.70025 17.7442 2.58574 17.6371 2.47416 17.5255C1.68976 16.7412 1.06754 15.8101 0.643017 14.7853C0.218498 13.7605 0 12.6621 0 11.5529C0 10.4437 0.218498 9.34528 0.643017 8.3205C1.06754 7.29571 1.68976 6.36458 2.47416 5.58029" fill="#AAB1C6"/>
</svg>