<svg width="36" height="26" viewBox="0 0 36 26" fill="none" xmlns="http://www.w3.org/2000/svg">
<path d="M28.9657 10.6833C28.5089 10.6833 28.0571 10.7295 27.6139 10.8212C27.4116 5.07527 22.9201 0.466553 17.428 0.466553C12.3774 0.466553 8.10398 4.41106 7.35427 9.59646C3.28224 9.70149 0 13.2309 0 17.5539C0 21.943 3.38278 25.5137 7.54084 25.5137H13.8497C14.3268 25.5137 14.7134 25.1056 14.7134 24.602C14.7134 24.0984 14.3268 23.6903 13.8497 23.6903H7.54084C4.33529 23.6903 1.72744 20.9376 1.72744 17.5539C1.72744 14.1703 4.3354 11.4176 7.54084 11.4176C7.69826 11.4176 7.86479 11.4257 8.04974 11.4426L8.92497 11.5226L8.98589 10.5975C9.29234 5.93908 13.0006 2.28996 17.428 2.28996C22.0959 2.28996 25.8936 6.29865 25.8936 11.2259C25.8936 11.4523 25.8833 11.6945 25.8623 11.9659L25.7491 13.4208L27.0373 12.8899C27.6541 12.6357 28.3029 12.5069 28.9659 12.5069C31.892 12.5069 34.2727 15.0198 34.2727 18.1085C34.2727 21.1971 31.892 23.71 28.9659 23.71C28.889 23.71 26.5926 23.7051 24.3056 23.7003C22.0353 23.6954 19.7743 23.6905 19.6992 23.6905C19.1616 23.6905 18.8806 23.4173 18.8638 22.8784V13.037L19.8011 14.2121C20.1083 14.5975 20.6532 14.6468 21.0181 14.3224C21.383 13.9982 21.4298 13.4231 21.1225 13.0378L19.0453 10.4332C18.7837 10.1051 18.4077 9.9169 18.0137 9.9169C17.6197 9.9169 17.2437 10.1051 16.9822 10.4332L14.905 13.0378C14.5978 13.4231 14.6445 13.9982 15.0095 14.3224C15.1715 14.4664 15.3689 14.5367 15.5652 14.5367C15.8113 14.5367 16.0556 14.4263 16.2264 14.2121L17.1363 13.0711V22.8873C17.1363 23.9431 17.8188 25.5138 19.6991 25.5138C19.7742 25.5138 22.0334 25.5187 24.3019 25.5234C26.5907 25.5284 28.8887 25.5333 28.9658 25.5333C32.8446 25.5333 36 22.2025 36 18.1084C36 14.0141 32.8444 10.6833 28.9657 10.6833Z" fill="#5F47F1"/>
</svg>
